<svg xmlns="http://www.w3.org/2000/svg" viewBox="0 0 13.37 10.79"><path d="M12.8 10.18l-.8-.8c-.98-.8-.86-1.92-.87-2.04-.02-.1-.02-.58.02-.74.04-.15 0-.32 0-.32.28-1.18 1.2-.85 1.2-.85.38.04.4-.33.4-.33.25-.13.2-.4.2-.4l-.47-.48c-.18-.48-.7-.6-.7-.6.08-.48-.17-.78-.17-.78-.03.14-.58.72-.62.73-.63.15-.43.26-.83.55-.4.28-1.26.63-1.64.43-.37-.2-3.5-.5-4.86-.5-.4 0-.7.1-.95.2-.23-.16-.52-.52-.73-1.02-.3-.74-.36-1.48-.12-1.98.13-.27.28-.42.44-.45.23-.05.52.16.6.24.17.14.42.13.56-.03.15-.15.14-.4-.02-.55C3.38.4 2.8-.1 2.14.02c-.42.08-.76.38-1 .9-.34.7-.3 1.66.1 2.6.18.44.47.93.83 1.25-.1.13-.13.23-.13.23-.12.27-.44.9-.33 1.45.13.56-.22.82-.3.88-.05.07-.73.47-.73.47L0 9.78c-.08.38.43.6.43.6.18-.03.2-.63.2-.63l.44-1.04 1.66-.6s0 .7-.02.83-.1.35-.1.35c.08.46 1.2 1.5 1.2 1.5h.85v-.26c-.07-.3-.5-.16-.5-.16l-.62-.95c.66-.5.93-1.38.93-1.38.3.26 1.8-.22 1.8-.22l.9.1-.25 2.1c-.07.5.05.68.05.68h.4c.3 0 .48.03.48-.27 0-.28-.4-.23-.4-.23l1-1.95c.93-.58 1.53.26 1.53.26l.05.3c.37.53 2.38 1.9 2.38 1.9h1v-.3c-.18-.32-.6-.2-.6-.2z"/></svg>